<?xml version="1.0" encoding="UTF-8"?>
<svg width="13400" height="13400" version="1.1" viewBox="0 0 13400 13400" xmlns="http://www.w3.org/2000/svg" xmlns:xlink="http://www.w3.org/1999/xlink">
    <!--Generated by IJSVG (https://github.com/curthard89/IJSVG)-->
    <path d="M50.837,48.137v-11.712c0,-6.275 -3.35,-9.195 -7.816,-9.195c-3.604,0 -5.219,1.983 -6.119,3.374v-2.894h-6.79c0.09,1.917 0,20.427 0,20.427h6.79v-11.408c0,-0.609 0.044,-1.219 0.224,-1.655c0.49,-1.22 1.607,-2.483 3.482,-2.483c2.458,0 3.44,1.873 3.44,4.618v10.929h6.789Zm-27.878,-23.215c2.367,0 3.842,-1.57 3.842,-3.531c-0.044,-2.003 -1.475,-3.528 -3.797,-3.528c-2.322,0 -3.841,1.524 -3.841,3.528c0,1.961 1.474,3.531 3.753,3.531h0.043Zm11.041,39.078c-16.568,0 -30,-13.432 -30,-30c0,-16.569 13.432,-30 30,-30c16.568,0 30,13.431 30,30c0,16.568 -13.432,30 -30,30Zm-7.646,-15.863v-20.427h-6.789v20.427h6.789Z" transform="scale(200)" fill-rule="evenodd" fill="#010101"></path>
</svg>