<svg xmlns="http://www.w3.org/2000/svg" width="2048" height="3840"><path d="M766,2337L1664,2321L1455,1862Z" fill="#3a60ff" stroke="#3a60ff" stroke-width="1.51"/><path d="M766,2337L1060,3205L1664,2321Z" fill="#465fff" stroke="#465fff" stroke-width="1.51"/><path d="M1455,1862L273,1259L766,2337Z" fill="#216df9" stroke="#216df9" stroke-width="1.51"/><path d="M-190,3488L889,3660L1060,3205Z" fill="#676ff5" stroke="#676ff5" stroke-width="1.51"/><path d="M1060,3205L2229,3178L1664,2321Z" fill="#665bff" stroke="#665bff" stroke-width="1.51"/><path d="M1664,2321L2635,2378L1455,1862Z" fill="#5b5cff" stroke="#5b5cff" stroke-width="1.51"/><path d="M273,1259L25,1518L766,2337Z" fill="#3683eb" stroke="#3683eb" stroke-width="1.51"/><path d="M2229,3178L2635,2378L1664,2321Z" fill="#7158ff" stroke="#7158ff" stroke-width="1.51"/><path d="M1455,1862L1094,573L273,1259Z" fill="#317af1" stroke="#317af1" stroke-width="1.51"/><path d="M1060,3205L1208,3819L2229,3178Z" fill="#6e59ff" stroke="#6e59ff" stroke-width="1.51"/><path d="M-190,3488L1060,3205L766,2337Z" fill="#5a72f4" stroke="#5a72f4" stroke-width="1.51"/><path d="M889,3660L1208,3819L1060,3205Z" fill="#615bff" stroke="#615bff" stroke-width="1.51"/><path d="M2643,1075L2039,846L1455,1862Z" fill="#6372f3" stroke="#6372f3" stroke-width="1.51"/><path d="M2039,846L1094,573L1455,1862Z" fill="#4f79f0" stroke="#4f79f0" stroke-width="1.51"/><path d="M2635,2378L2643,1075L1455,1862Z" fill="#6360fc" stroke="#6360fc" stroke-width="1.51"/><path d="M25,1518L-648,2119L766,2337Z" fill="#3c88e8" stroke="#3c88e8" stroke-width="1.51"/><path d="M-903,1938L-648,2119L25,1518Z" fill="#3a98df" stroke="#3a98df" stroke-width="1.51"/><path d="M-648,2119L-190,3488L766,2337Z" fill="#578ae6" stroke="#578ae6" stroke-width="1.51"/><path d="M889,3660L1080,4821L1208,3819Z" fill="#5b53e5" stroke="#5b53e5" stroke-width="1.51"/><path d="M1094,573L566,369L273,1259Z" fill="#3c94e1" stroke="#3c94e1" stroke-width="1.51"/><path d="M273,1259L-172,695L25,1518Z" fill="#3c9fda" stroke="#3c9fda" stroke-width="1.51"/><path d="M807,-57L566,369L1094,573Z" fill="#3c99dd" stroke="#3c99dd" stroke-width="1.51"/><path d="M2635,2378L3087,1406L2643,1075Z" fill="#5759d3" stroke="#5759d3" stroke-width="1.51"/><path d="M-190,3488L-124,3828L889,3660Z" fill="#727feb" stroke="#727feb" stroke-width="1.51"/><path d="M-1342,3620L-124,3828L-190,3488Z" fill="#7393e1" stroke="#7393e1" stroke-width="1.51"/><path d="M2229,3178L3298,2447L2635,2378Z" fill="#694ddf" stroke="#694ddf" stroke-width="1.51"/><path d="M2635,2378L3298,2447L3087,1406Z" fill="#4c48c2" stroke="#4c48c2" stroke-width="1.51"/><path d="M1208,3819L2230,4059L2229,3178Z" fill="#8254ff" stroke="#8254ff" stroke-width="1.51"/><path d="M1080,4821L2230,4059L1208,3819Z" fill="#654dda" stroke="#654dda" stroke-width="1.51"/><path d="M566,369L-172,695L273,1259Z" fill="#3ca3d7" stroke="#3ca3d7" stroke-width="1.51"/><path d="M2887,3717L3298,2447L2229,3178Z" fill="#6f48d6" stroke="#6f48d6" stroke-width="1.51"/><path d="M-172,695L-903,1938L25,1518Z" fill="#3aa7d4" stroke="#3aa7d4" stroke-width="1.51"/><path d="M-648,2119L-1342,3620L-190,3488Z" fill="#6393e3" stroke="#6393e3" stroke-width="1.51"/><path d="M2230,4059L2887,3717L2229,3178Z" fill="#8d4ffa" stroke="#8d4ffa" stroke-width="1.51"/><path d="M566,369L-678,-762L-172,695Z" fill="#24c1c2" stroke="#24c1c2" stroke-width="1.51"/><path d="M1691,-112L807,-57L1094,573Z" fill="#4796df" stroke="#4796df" stroke-width="1.51"/><path d="M1691,-112L1094,573L2039,846Z" fill="#598de4" stroke="#598de4" stroke-width="1.51"/><path d="M2844,-235L1691,-112L2039,846Z" fill="#7093e0" stroke="#7093e0" stroke-width="1.51"/><path d="M2844,-235L2039,846L2643,1075Z" fill="#7083dc" stroke="#7083dc" stroke-width="1.51"/><path d="M-124,3828L135,4455L889,3660Z" fill="#6a74dd" stroke="#6a74dd" stroke-width="1.51"/><path d="M3087,1406L3433,996L2643,1075Z" fill="#4f5eb0" stroke="#4f5eb0" stroke-width="1.51"/><path d="M3298,2447L3433,996L3087,1406Z" fill="#3f4aa2" stroke="#3f4aa2" stroke-width="1.51"/><path d="M135,4455L1080,4821L889,3660Z" fill="#585ccd" stroke="#585ccd" stroke-width="1.51"/><path d="M2230,4059L3175,4576L2887,3717Z" fill="#703ebf" stroke="#703ebf" stroke-width="1.51"/><path d="M-172,695L-1456,1314L-903,1938Z" fill="#36a5d9" stroke="#36a5d9" stroke-width="1.51"/><path d="M-903,1938L-1342,3620L-648,2119Z" fill="#5191e7" stroke="#5191e7" stroke-width="1.51"/><path d="M-124,3828L-1416,4041L135,4455Z" fill="#688ac5" stroke="#688ac5" stroke-width="1.51"/><path d="M-1485,141L-1456,1314L-172,695Z" fill="#2db4d1" stroke="#2db4d1" stroke-width="1.51"/><path d="M-1456,1314L-1342,3620L-903,1938Z" fill="#448feb" stroke="#448feb" stroke-width="1.51"/><path d="M3433,996L2844,-235L2643,1075Z" fill="#5671ae" stroke="#5671ae" stroke-width="1.51"/><path d="M1691,-112L1639,-976L807,-57Z" fill="#4d94e3" stroke="#4d94e3" stroke-width="1.51"/><path d="M2369,5092L3175,4576L2230,4059Z" fill="#683aaf" stroke="#683aaf" stroke-width="1.51"/><path d="M2887,3717L3175,4576L3298,2447Z" fill="#683eb6" stroke="#683eb6" stroke-width="1.51"/><path d="M3298,2447L3210,4936L3433,996Z" fill="#4f3ca4" stroke="#4f3ca4" stroke-width="1.51"/><path d="M1080,4821L2369,5092L2230,4059Z" fill="#6141bb" stroke="#6141bb" stroke-width="1.51"/><path d="M1080,4821L-264,5600L2369,5092Z" fill="#323b96" stroke="#323b96" stroke-width="1.51"/><path d="M135,4455L170,5154L1080,4821Z" fill="#4759a3" stroke="#4759a3" stroke-width="1.51"/><path d="M-264,5600L170,5154L135,4455Z" fill="#3e6386" stroke="#3e6386" stroke-width="1.51"/><path d="M-1342,3620L-1416,4041L-124,3828Z" fill="#728de1" stroke="#728de1" stroke-width="1.51"/><path d="M-1456,1314L-1416,4041L-1342,3620Z" fill="#5c8ded" stroke="#5c8ded" stroke-width="1.51"/><path d="M-678,-762L-1485,141L-172,695Z" fill="#0dc8c1" stroke="#0dc8c1" stroke-width="1.51"/><path d="M2844,-235L1639,-976L1691,-112Z" fill="#6a92e3" stroke="#6a92e3" stroke-width="1.51"/><path d="M2369,5092L3210,4936L3175,4576Z" fill="#4c2c7b" stroke="#4c2c7b" stroke-width="1.51"/><path d="M3175,4576L3210,4936L3298,2447Z" fill="#5e359c" stroke="#5e359c" stroke-width="1.51"/><path d="M-1456,1314L-1522,4971L-1416,4041Z" fill="#698bee" stroke="#698bee" stroke-width="1.51"/><path d="M-678,-762L566,369L807,-57Z" fill="#32b5cc" stroke="#32b5cc" stroke-width="1.51"/><path d="M2844,-235L2859,-1162L1639,-976Z" fill="#728de3" stroke="#728de3" stroke-width="1.51"/><path d="M3433,996L3490,-355L2844,-235Z" fill="#44748b" stroke="#44748b" stroke-width="1.51"/><path d="M1639,-976L547,-1186L807,-57Z" fill="#3593e6" stroke="#3593e6" stroke-width="1.51"/><path d="M547,-1186L-678,-762L807,-57Z" fill="#31b1d2" stroke="#31b1d2" stroke-width="1.51"/><path d="M170,5154L-264,5600L1080,4821Z" fill="#395485" stroke="#395485" stroke-width="1.51"/><path d="M2369,5092L-264,5600L3210,4936Z" fill="#493693" stroke="#493693" stroke-width="1.51"/><path d="M-1522,4971L-264,5600L135,4455Z" fill="#3e7185" stroke="#3e7185" stroke-width="1.51"/><path d="M-678,-762L-1431,-364L-1485,141Z" fill="#14c2cc" stroke="#14c2cc" stroke-width="1.51"/><path d="M3112,-1123L2859,-1162L2844,-235Z" fill="#567bb2" stroke="#567bb2" stroke-width="1.51"/><path d="M1639,-976L2859,-1162L547,-1186Z" fill="#578feb" stroke="#578feb" stroke-width="1.51"/><path d="M-678,-762L-1114,-1449L-1431,-364Z" fill="#14bfcf" stroke="#14bfcf" stroke-width="1.51"/><path d="M547,-1186L-686,-1073L-678,-762Z" fill="#1ac1c9" stroke="#1ac1c9" stroke-width="1.51"/><path d="M-1416,4041L-1522,4971L135,4455Z" fill="#557caf" stroke="#557caf" stroke-width="1.51"/><path d="M-1485,141L-1522,4971L-1456,1314Z" fill="#3a8dee" stroke="#3a8dee" stroke-width="1.51"/><path d="M3490,-355L3112,-1123L2844,-235Z" fill="#4a759b" stroke="#4a759b" stroke-width="1.51"/><path d="M547,-1186L-1114,-1449L-686,-1073Z" fill="#13c2ca" stroke="#13c2ca" stroke-width="1.51"/><path d="M-686,-1073L-1114,-1449L-678,-762Z" fill="#14c0cf" stroke="#14c0cf" stroke-width="1.51"/><path d="M2859,-1162L-1114,-1449L547,-1186Z" fill="#3199e6" stroke="#3199e6" stroke-width="1.51"/></svg>